<svg width="140" height="32" viewBox="0 0 140 32" fill="none" xmlns="http://www.w3.org/2000/svg">
<g filter="url(#filter0_d_1_77)">
<path d="M44.52 19V5.8H49.48C50.8667 5.8 52.0067 6.19333 52.9 6.98C53.7933 7.76667 54.24 8.79333 54.24 10.06C54.24 11.3133 53.7933 12.34 52.9 13.14C52.0067 13.94 50.8667 14.34 49.48 14.34H47.22V19H44.52ZM47.22 11.98H49.48C50.1067 11.98 50.5933 11.8067 50.94 11.46C51.3 11.1 51.48 10.6333 51.48 10.06C51.48 9.5 51.2933 9.04667 50.92 8.7C50.56 8.35333 50.08 8.18 49.48 8.18H47.22V11.98ZM55.4206 14.04C55.394 12.6267 55.9073 11.4067 56.9606 10.38C58.014 9.35333 59.2673 8.85333 60.7206 8.88C62.174 8.85333 63.4273 9.35333 64.4806 10.38C65.5473 11.4067 66.0673 12.6267 66.0406 14.04C66.0673 15.4533 65.5473 16.68 64.4806 17.72C63.414 18.7467 62.154 19.2467 60.7006 19.22C59.2473 19.2467 57.994 18.7467 56.9406 17.72C55.9006 16.68 55.394 15.4533 55.4206 14.04ZM62.5406 15.98C63.034 15.4733 63.2806 14.8333 63.2806 14.06C63.2806 13.2867 63.034 12.64 62.5406 12.12C62.0606 11.6 61.454 11.34 60.7206 11.34C59.974 11.34 59.3606 11.6 58.8806 12.12C58.4006 12.6267 58.1606 13.2733 58.1606 14.06C58.1606 14.8333 58.4006 15.4733 58.8806 15.98C59.3606 16.4867 59.974 16.74 60.7206 16.74C61.454 16.74 62.0606 16.4867 62.5406 15.98ZM68.1486 19V4H70.8486V19H68.1486ZM73.5197 19V9.1H76.2197V19H73.5197ZM73.1397 5.5C73.1397 5.02 73.3064 4.62 73.6397 4.3C73.973 3.98 74.3797 3.82 74.8597 3.82C75.3397 3.82 75.7464 3.98 76.0797 4.3C76.4264 4.62 76.5997 5.02 76.5997 5.5C76.5997 5.96667 76.4264 6.36 76.0797 6.68C75.7464 7 75.3397 7.16 74.8597 7.16C74.3797 7.16 73.973 7 73.6397 6.68C73.3064 6.36 73.1397 5.96667 73.1397 5.5ZM83.9163 12.4C83.8896 10.5067 84.5763 8.88667 85.9763 7.54C87.3763 6.18 89.0363 5.52 90.9563 5.56C92.2096 5.56 93.3429 5.85333 94.3563 6.44C95.3829 7.01333 96.1896 7.81333 96.7763 8.84L94.7363 10.28C93.7896 8.8 92.5296 8.06 90.9563 8.06C89.7296 8.06 88.7096 8.47333 87.8963 9.3C87.0963 10.1267 86.6963 11.1667 86.6963 12.42C86.6963 13.6733 87.0963 14.7067 87.8963 15.52C88.7096 16.3333 89.7296 16.74 90.9563 16.74C92.5296 16.74 93.7896 16 94.7363 14.52L96.7763 15.96C96.2029 16.9867 95.4029 17.7933 94.3763 18.38C93.3496 18.9533 92.2029 19.24 90.9363 19.24C89.0029 19.28 87.3363 18.6267 85.9363 17.28C84.5496 15.92 83.8763 14.2933 83.9163 12.4ZM98.8908 19V4H101.591V19H98.8908ZM104.262 19V9.1H106.962V19H104.262ZM103.882 5.5C103.882 5.02 104.049 4.62 104.382 4.3C104.715 3.98 105.122 3.82 105.602 3.82C106.082 3.82 106.489 3.98 106.822 4.3C107.169 4.62 107.342 5.02 107.342 5.5C107.342 5.96667 107.169 6.36 106.822 6.68C106.489 7 106.082 7.16 105.602 7.16C105.122 7.16 104.715 7 104.382 6.68C104.049 6.36 103.882 5.96667 103.882 5.5ZM118.733 12.86V19H116.053V13.22C116.053 12.6467 115.88 12.1867 115.533 11.84C115.2 11.48 114.76 11.3 114.213 11.3C113.666 11.3 113.213 11.48 112.853 11.84C112.506 12.1867 112.333 12.6467 112.333 13.22V19H109.633V9.1H112.113V10C112.86 9.25333 113.826 8.88 115.013 8.88C116.16 8.88 117.066 9.24 117.733 9.96C118.4 10.68 118.733 11.6467 118.733 12.86ZM121.332 19V9.1H124.032V19H121.332ZM120.952 5.5C120.952 5.02 121.119 4.62 121.452 4.3C121.786 3.98 122.192 3.82 122.672 3.82C123.152 3.82 123.559 3.98 123.892 4.3C124.239 4.62 124.412 5.02 124.412 5.5C124.412 5.96667 124.239 6.36 123.892 6.68C123.559 7 123.152 7.16 122.672 7.16C122.192 7.16 121.786 7 121.452 6.68C121.119 6.36 120.952 5.96667 120.952 5.5ZM126.143 14.04C126.143 12.6 126.657 11.38 127.683 10.38C128.71 9.38 129.963 8.88 131.443 8.88C133.39 8.88 134.823 9.69333 135.743 11.32L133.863 12.78C133.197 11.82 132.403 11.34 131.483 11.34C130.723 11.34 130.097 11.6 129.603 12.12C129.123 12.6267 128.883 13.2667 128.883 14.04C128.883 14.8267 129.123 15.48 129.603 16C130.097 16.5067 130.723 16.76 131.483 16.76C132.403 16.76 133.197 16.2867 133.863 15.34L135.743 16.78C135.303 17.5533 134.71 18.16 133.963 18.6C133.23 19.0267 132.39 19.24 131.443 19.24C129.99 19.2667 128.737 18.7667 127.683 17.74C126.63 16.7 126.117 15.4667 126.143 14.04Z" fill="#0075FF"/>
</g>
<circle cx="15" cy="12" r="11.5" stroke="#0075FF" stroke-dasharray="3 3"/>
<g filter="url(#filter1_d_1_77)">
<circle cx="15" cy="12" r="5" fill="#0075FF"/>
</g>
<defs>
<filter id="filter0_d_1_77" x="40.52" y="3.82001" width="99.2233" height="23.48" filterUnits="userSpaceOnUse" color-interpolation-filters="sRGB">
<feFlood flood-opacity="0" result="BackgroundImageFix"/>
<feColorMatrix in="SourceAlpha" type="matrix" values="0 0 0 0 0 0 0 0 0 0 0 0 0 0 0 0 0 0 127 0" result="hardAlpha"/>
<feOffset dy="4"/>
<feGaussianBlur stdDeviation="2"/>
<feComposite in2="hardAlpha" operator="out"/>
<feColorMatrix type="matrix" values="0 0 0 0 0 0 0 0 0 0 0 0 0 0 0 0 0 0 0.25 0"/>
<feBlend mode="normal" in2="BackgroundImageFix" result="effect1_dropShadow_1_77"/>
<feBlend mode="normal" in="SourceGraphic" in2="effect1_dropShadow_1_77" result="shape"/>
</filter>
<filter id="filter1_d_1_77" x="0" y="2" width="30" height="30" filterUnits="userSpaceOnUse" color-interpolation-filters="sRGB">
<feFlood flood-opacity="0" result="BackgroundImageFix"/>
<feColorMatrix in="SourceAlpha" type="matrix" values="0 0 0 0 0 0 0 0 0 0 0 0 0 0 0 0 0 0 127 0" result="hardAlpha"/>
<feOffset dy="5"/>
<feGaussianBlur stdDeviation="5"/>
<feColorMatrix type="matrix" values="0 0 0 0 0 0 0 0 0 0 0 0 0 0 0 0 0 0 0.1 0"/>
<feBlend mode="normal" in2="BackgroundImageFix" result="effect1_dropShadow_1_77"/>
<feBlend mode="normal" in="SourceGraphic" in2="effect1_dropShadow_1_77" result="shape"/>
</filter>
</defs>
</svg>
